<svg width="248" height="60" viewBox="0 0 248 60" fill="none" xmlns="http://www.w3.org/2000/svg">
<g filter="url(#filter0_d_201_46)">
<rect x="4" width="240" height="52" rx="10" fill="white"/>
<rect x="4" width="240" height="52" rx="10" fill="#4E5D78" fill-opacity="0.05"/>
<path d="M87.7656 29.4453V31H82.0547V29.4453H87.7656ZM82.6016 19.625V31H80.6406V19.625H82.6016ZM88.7344 26.8672V26.6875C88.7344 26.0781 88.8229 25.513 89 24.9922C89.1771 24.4661 89.4323 24.0104 89.7656 23.625C90.1042 23.2344 90.5156 22.9323 91 22.7188C91.4896 22.5 92.0417 22.3906 92.6562 22.3906C93.276 22.3906 93.8281 22.5 94.3125 22.7188C94.8021 22.9323 95.2161 23.2344 95.5547 23.625C95.8932 24.0104 96.151 24.4661 96.3281 24.9922C96.5052 25.513 96.5938 26.0781 96.5938 26.6875V26.8672C96.5938 27.4766 96.5052 28.0417 96.3281 28.5625C96.151 29.0833 95.8932 29.5391 95.5547 29.9297C95.2161 30.3151 94.8047 30.6172 94.3203 30.8359C93.8359 31.0495 93.2865 31.1562 92.6719 31.1562C92.0521 31.1562 91.4974 31.0495 91.0078 30.8359C90.5234 30.6172 90.112 30.3151 89.7734 29.9297C89.4349 29.5391 89.1771 29.0833 89 28.5625C88.8229 28.0417 88.7344 27.4766 88.7344 26.8672ZM90.6172 26.6875V26.8672C90.6172 27.2474 90.6562 27.6068 90.7344 27.9453C90.8125 28.2839 90.9349 28.5807 91.1016 28.8359C91.2682 29.0911 91.4818 29.2917 91.7422 29.4375C92.0026 29.5833 92.3125 29.6562 92.6719 29.6562C93.0208 29.6562 93.3229 29.5833 93.5781 29.4375C93.8385 29.2917 94.0521 29.0911 94.2188 28.8359C94.3854 28.5807 94.5078 28.2839 94.5859 27.9453C94.6693 27.6068 94.7109 27.2474 94.7109 26.8672V26.6875C94.7109 26.3125 94.6693 25.9583 94.5859 25.625C94.5078 25.2865 94.3828 24.987 94.2109 24.7266C94.0443 24.4661 93.8307 24.263 93.5703 24.1172C93.3151 23.9661 93.0104 23.8906 92.6562 23.8906C92.3021 23.8906 91.9948 23.9661 91.7344 24.1172C91.4792 24.263 91.2682 24.4661 91.1016 24.7266C90.9349 24.987 90.8125 25.2865 90.7344 25.625C90.6562 25.9583 90.6172 26.3125 90.6172 26.6875ZM103.586 22.5469H105.297V30.7656C105.297 31.526 105.135 32.1719 104.812 32.7031C104.49 33.2344 104.039 33.638 103.461 33.9141C102.883 34.1953 102.214 34.3359 101.453 34.3359C101.13 34.3359 100.771 34.2891 100.375 34.1953C99.9844 34.1016 99.6042 33.9505 99.2344 33.7422C98.8698 33.5391 98.5651 33.2708 98.3203 32.9375L99.2031 31.8281C99.5052 32.1875 99.8385 32.4505 100.203 32.6172C100.568 32.7839 100.951 32.8672 101.352 32.8672C101.784 32.8672 102.151 32.7865 102.453 32.625C102.76 32.4688 102.997 32.237 103.164 31.9297C103.331 31.6224 103.414 31.2474 103.414 30.8047V24.4609L103.586 22.5469ZM97.8438 26.8672V26.7031C97.8438 26.0625 97.9219 25.4792 98.0781 24.9531C98.2344 24.4219 98.4583 23.9661 98.75 23.5859C99.0417 23.2005 99.3958 22.9062 99.8125 22.7031C100.229 22.4948 100.701 22.3906 101.227 22.3906C101.773 22.3906 102.24 22.4896 102.625 22.6875C103.016 22.8854 103.341 23.1693 103.602 23.5391C103.862 23.9036 104.065 24.3411 104.211 24.8516C104.362 25.3568 104.474 25.9193 104.547 26.5391V27.0625C104.479 27.6667 104.365 28.2188 104.203 28.7188C104.042 29.2188 103.828 29.651 103.562 30.0156C103.297 30.3802 102.969 30.6615 102.578 30.8594C102.193 31.0573 101.737 31.1562 101.211 31.1562C100.695 31.1562 100.229 31.0495 99.8125 30.8359C99.401 30.6224 99.0469 30.3229 98.75 29.9375C98.4583 29.5521 98.2344 29.099 98.0781 28.5781C97.9219 28.0521 97.8438 27.4818 97.8438 26.8672ZM99.7266 26.7031V26.8672C99.7266 27.2526 99.763 27.612 99.8359 27.9453C99.9141 28.2786 100.031 28.5729 100.188 28.8281C100.349 29.0781 100.552 29.276 100.797 29.4219C101.047 29.5625 101.341 29.6328 101.68 29.6328C102.122 29.6328 102.484 29.5391 102.766 29.3516C103.052 29.1641 103.271 28.9115 103.422 28.5938C103.578 28.2708 103.688 27.9115 103.75 27.5156V26.1016C103.719 25.7943 103.654 25.5078 103.555 25.2422C103.461 24.9766 103.333 24.7448 103.172 24.5469C103.01 24.3438 102.807 24.1875 102.562 24.0781C102.318 23.9635 102.029 23.9062 101.695 23.9062C101.357 23.9062 101.062 23.9792 100.812 24.125C100.562 24.2708 100.357 24.4714 100.195 24.7266C100.039 24.9818 99.9219 25.2786 99.8438 25.6172C99.7656 25.9557 99.7266 26.3177 99.7266 26.7031ZM113.25 22.5469V31H111.359V22.5469H113.25ZM111.234 20.3281C111.234 20.0417 111.328 19.8047 111.516 19.6172C111.708 19.4245 111.974 19.3281 112.312 19.3281C112.646 19.3281 112.909 19.4245 113.102 19.6172C113.294 19.8047 113.391 20.0417 113.391 20.3281C113.391 20.6094 113.294 20.8438 113.102 21.0312C112.909 21.2188 112.646 21.3125 112.312 21.3125C111.974 21.3125 111.708 21.2188 111.516 21.0312C111.328 20.8438 111.234 20.6094 111.234 20.3281ZM117.18 24.3516V31H115.297V22.5469H117.07L117.18 24.3516ZM116.844 26.4609L116.234 26.4531C116.24 25.8542 116.323 25.3047 116.484 24.8047C116.651 24.3047 116.88 23.875 117.172 23.5156C117.469 23.1562 117.823 22.8802 118.234 22.6875C118.646 22.4896 119.104 22.3906 119.609 22.3906C120.016 22.3906 120.383 22.4479 120.711 22.5625C121.044 22.6719 121.328 22.8516 121.562 23.1016C121.802 23.3516 121.984 23.6771 122.109 24.0781C122.234 24.474 122.297 24.9609 122.297 25.5391V31H120.406V25.5312C120.406 25.125 120.346 24.8047 120.227 24.5703C120.112 24.3307 119.943 24.1615 119.719 24.0625C119.5 23.9583 119.227 23.9062 118.898 23.9062C118.576 23.9062 118.286 23.974 118.031 24.1094C117.776 24.2448 117.56 24.4297 117.383 24.6641C117.211 24.8984 117.078 25.1693 116.984 25.4766C116.891 25.7839 116.844 26.112 116.844 26.4609ZM130.5 29.125L132.453 22.5469H133.656L133.328 24.5156L131.359 31H130.281L130.5 29.125ZM129.352 22.5469L130.875 29.1562L131 31H129.797L127.508 22.5469H129.352ZM135.484 29.0781L136.961 22.5469H138.797L136.516 31H135.312L135.484 29.0781ZM133.859 22.5469L135.789 29.0469L136.031 31H134.953L132.961 24.5078L132.633 22.5469H133.859ZM142.094 22.5469V31H140.203V22.5469H142.094ZM140.078 20.3281C140.078 20.0417 140.172 19.8047 140.359 19.6172C140.552 19.4245 140.818 19.3281 141.156 19.3281C141.49 19.3281 141.753 19.4245 141.945 19.6172C142.138 19.8047 142.234 20.0417 142.234 20.3281C142.234 20.6094 142.138 20.8438 141.945 21.0312C141.753 21.2188 141.49 21.3125 141.156 21.3125C140.818 21.3125 140.552 21.2188 140.359 21.0312C140.172 20.8438 140.078 20.6094 140.078 20.3281ZM148.031 22.5469V23.9219H143.266V22.5469H148.031ZM144.641 20.4766H146.523V28.6641C146.523 28.9245 146.56 29.125 146.633 29.2656C146.711 29.401 146.818 29.4922 146.953 29.5391C147.089 29.5859 147.247 29.6094 147.43 29.6094C147.56 29.6094 147.685 29.6016 147.805 29.5859C147.924 29.5703 148.021 29.5547 148.094 29.5391L148.102 30.9766C147.945 31.0234 147.763 31.0651 147.555 31.1016C147.352 31.138 147.117 31.1562 146.852 31.1562C146.419 31.1562 146.036 31.0807 145.703 30.9297C145.37 30.7734 145.109 30.5208 144.922 30.1719C144.734 29.8229 144.641 29.3594 144.641 28.7812V20.4766ZM151.344 19V31H149.469V19H151.344ZM151.016 26.4609L150.406 26.4531C150.411 25.8698 150.492 25.3307 150.648 24.8359C150.81 24.3411 151.034 23.9115 151.32 23.5469C151.612 23.1771 151.961 22.8932 152.367 22.6953C152.773 22.4922 153.224 22.3906 153.719 22.3906C154.135 22.3906 154.51 22.4479 154.844 22.5625C155.182 22.6771 155.474 22.862 155.719 23.1172C155.964 23.3672 156.148 23.6953 156.273 24.1016C156.404 24.5026 156.469 24.9922 156.469 25.5703V31H154.578V25.5547C154.578 25.1484 154.518 24.8255 154.398 24.5859C154.284 24.3464 154.115 24.1745 153.891 24.0703C153.667 23.9609 153.393 23.9062 153.07 23.9062C152.732 23.9062 152.432 23.974 152.172 24.1094C151.917 24.2448 151.703 24.4297 151.531 24.6641C151.359 24.8984 151.229 25.1693 151.141 25.4766C151.057 25.7839 151.016 26.112 151.016 26.4609ZM166.977 21.1406L163.578 31H161.523L165.805 19.625H167.117L166.977 21.1406ZM169.82 31L166.414 21.1406L166.266 19.625H167.586L171.883 31H169.82ZM169.656 26.7812V28.3359H163.469V26.7812H169.656ZM174.719 24.1719V34.25H172.836V22.5469H174.57L174.719 24.1719ZM180.227 26.6953V26.8594C180.227 27.474 180.154 28.0443 180.008 28.5703C179.867 29.0911 179.656 29.5469 179.375 29.9375C179.099 30.3229 178.758 30.6224 178.352 30.8359C177.945 31.0495 177.477 31.1562 176.945 31.1562C176.419 31.1562 175.958 31.0599 175.562 30.8672C175.172 30.6693 174.841 30.3906 174.57 30.0312C174.299 29.6719 174.081 29.25 173.914 28.7656C173.753 28.276 173.638 27.7396 173.57 27.1562V26.5234C173.638 25.9036 173.753 25.3411 173.914 24.8359C174.081 24.3307 174.299 23.8958 174.57 23.5312C174.841 23.1667 175.172 22.8854 175.562 22.6875C175.953 22.4896 176.409 22.3906 176.93 22.3906C177.461 22.3906 177.932 22.4948 178.344 22.7031C178.755 22.9062 179.102 23.1979 179.383 23.5781C179.664 23.9531 179.875 24.4062 180.016 24.9375C180.156 25.4635 180.227 26.0495 180.227 26.6953ZM178.344 26.8594V26.6953C178.344 26.3047 178.307 25.9427 178.234 25.6094C178.161 25.2708 178.047 24.974 177.891 24.7188C177.734 24.4635 177.534 24.2656 177.289 24.125C177.049 23.9792 176.76 23.9062 176.422 23.9062C176.089 23.9062 175.802 23.9635 175.562 24.0781C175.323 24.1875 175.122 24.3411 174.961 24.5391C174.799 24.737 174.674 24.9688 174.586 25.2344C174.497 25.4948 174.435 25.7786 174.398 26.0859V27.6016C174.461 27.9766 174.568 28.3203 174.719 28.6328C174.87 28.9453 175.083 29.1953 175.359 29.3828C175.641 29.5651 176 29.6562 176.438 29.6562C176.776 29.6562 177.065 29.5833 177.305 29.4375C177.544 29.2917 177.74 29.0911 177.891 28.8359C178.047 28.5755 178.161 28.276 178.234 27.9375C178.307 27.599 178.344 27.2396 178.344 26.8594ZM183.719 24.1719V34.25H181.836V22.5469H183.57L183.719 24.1719ZM189.227 26.6953V26.8594C189.227 27.474 189.154 28.0443 189.008 28.5703C188.867 29.0911 188.656 29.5469 188.375 29.9375C188.099 30.3229 187.758 30.6224 187.352 30.8359C186.945 31.0495 186.477 31.1562 185.945 31.1562C185.419 31.1562 184.958 31.0599 184.562 30.8672C184.172 30.6693 183.841 30.3906 183.57 30.0312C183.299 29.6719 183.081 29.25 182.914 28.7656C182.753 28.276 182.638 27.7396 182.57 27.1562V26.5234C182.638 25.9036 182.753 25.3411 182.914 24.8359C183.081 24.3307 183.299 23.8958 183.57 23.5312C183.841 23.1667 184.172 22.8854 184.562 22.6875C184.953 22.4896 185.409 22.3906 185.93 22.3906C186.461 22.3906 186.932 22.4948 187.344 22.7031C187.755 22.9062 188.102 23.1979 188.383 23.5781C188.664 23.9531 188.875 24.4062 189.016 24.9375C189.156 25.4635 189.227 26.0495 189.227 26.6953ZM187.344 26.8594V26.6953C187.344 26.3047 187.307 25.9427 187.234 25.6094C187.161 25.2708 187.047 24.974 186.891 24.7188C186.734 24.4635 186.534 24.2656 186.289 24.125C186.049 23.9792 185.76 23.9062 185.422 23.9062C185.089 23.9062 184.802 23.9635 184.562 24.0781C184.323 24.1875 184.122 24.3411 183.961 24.5391C183.799 24.737 183.674 24.9688 183.586 25.2344C183.497 25.4948 183.435 25.7786 183.398 26.0859V27.6016C183.461 27.9766 183.568 28.3203 183.719 28.6328C183.87 28.9453 184.083 29.1953 184.359 29.3828C184.641 29.5651 185 29.6562 185.438 29.6562C185.776 29.6562 186.065 29.5833 186.305 29.4375C186.544 29.2917 186.74 29.0911 186.891 28.8359C187.047 28.5755 187.161 28.276 187.234 27.9375C187.307 27.599 187.344 27.2396 187.344 26.8594ZM192.844 19V31H190.953V19H192.844ZM198.633 31.1562C198.008 31.1562 197.443 31.0547 196.938 30.8516C196.438 30.6432 196.01 30.3542 195.656 29.9844C195.307 29.6146 195.039 29.1797 194.852 28.6797C194.664 28.1797 194.57 27.6406 194.57 27.0625V26.75C194.57 26.0885 194.667 25.4896 194.859 24.9531C195.052 24.4167 195.32 23.9583 195.664 23.5781C196.008 23.1927 196.414 22.8984 196.883 22.6953C197.352 22.4922 197.859 22.3906 198.406 22.3906C199.01 22.3906 199.539 22.4922 199.992 22.6953C200.445 22.8984 200.82 23.1849 201.117 23.5547C201.419 23.9193 201.643 24.3542 201.789 24.8594C201.94 25.3646 202.016 25.9219 202.016 26.5312V27.3359H195.484V25.9844H200.156V25.8359C200.146 25.4974 200.078 25.1797 199.953 24.8828C199.833 24.5859 199.648 24.3464 199.398 24.1641C199.148 23.9818 198.815 23.8906 198.398 23.8906C198.086 23.8906 197.807 23.9583 197.562 24.0938C197.323 24.224 197.122 24.4141 196.961 24.6641C196.799 24.9141 196.674 25.2161 196.586 25.5703C196.503 25.9193 196.461 26.3125 196.461 26.75V27.0625C196.461 27.4323 196.51 27.776 196.609 28.0938C196.714 28.4062 196.865 28.6797 197.062 28.9141C197.26 29.1484 197.5 29.3333 197.781 29.4688C198.062 29.599 198.383 29.6641 198.742 29.6641C199.195 29.6641 199.599 29.5729 199.953 29.3906C200.307 29.2083 200.615 28.9505 200.875 28.6172L201.867 29.5781C201.685 29.8438 201.448 30.099 201.156 30.3438C200.865 30.5833 200.508 30.7786 200.086 30.9297C199.669 31.0807 199.185 31.1562 198.633 31.1562Z" fill="white"/>
<path d="M87.7656 29.4453V31H82.0547V29.4453H87.7656ZM82.6016 19.625V31H80.6406V19.625H82.6016ZM88.7344 26.8672V26.6875C88.7344 26.0781 88.8229 25.513 89 24.9922C89.1771 24.4661 89.4323 24.0104 89.7656 23.625C90.1042 23.2344 90.5156 22.9323 91 22.7188C91.4896 22.5 92.0417 22.3906 92.6562 22.3906C93.276 22.3906 93.8281 22.5 94.3125 22.7188C94.8021 22.9323 95.2161 23.2344 95.5547 23.625C95.8932 24.0104 96.151 24.4661 96.3281 24.9922C96.5052 25.513 96.5938 26.0781 96.5938 26.6875V26.8672C96.5938 27.4766 96.5052 28.0417 96.3281 28.5625C96.151 29.0833 95.8932 29.5391 95.5547 29.9297C95.2161 30.3151 94.8047 30.6172 94.3203 30.8359C93.8359 31.0495 93.2865 31.1562 92.6719 31.1562C92.0521 31.1562 91.4974 31.0495 91.0078 30.8359C90.5234 30.6172 90.112 30.3151 89.7734 29.9297C89.4349 29.5391 89.1771 29.0833 89 28.5625C88.8229 28.0417 88.7344 27.4766 88.7344 26.8672ZM90.6172 26.6875V26.8672C90.6172 27.2474 90.6562 27.6068 90.7344 27.9453C90.8125 28.2839 90.9349 28.5807 91.1016 28.8359C91.2682 29.0911 91.4818 29.2917 91.7422 29.4375C92.0026 29.5833 92.3125 29.6562 92.6719 29.6562C93.0208 29.6562 93.3229 29.5833 93.5781 29.4375C93.8385 29.2917 94.0521 29.0911 94.2188 28.8359C94.3854 28.5807 94.5078 28.2839 94.5859 27.9453C94.6693 27.6068 94.7109 27.2474 94.7109 26.8672V26.6875C94.7109 26.3125 94.6693 25.9583 94.5859 25.625C94.5078 25.2865 94.3828 24.987 94.2109 24.7266C94.0443 24.4661 93.8307 24.263 93.5703 24.1172C93.3151 23.9661 93.0104 23.8906 92.6562 23.8906C92.3021 23.8906 91.9948 23.9661 91.7344 24.1172C91.4792 24.263 91.2682 24.4661 91.1016 24.7266C90.9349 24.987 90.8125 25.2865 90.7344 25.625C90.6562 25.9583 90.6172 26.3125 90.6172 26.6875ZM103.586 22.5469H105.297V30.7656C105.297 31.526 105.135 32.1719 104.812 32.7031C104.49 33.2344 104.039 33.638 103.461 33.9141C102.883 34.1953 102.214 34.3359 101.453 34.3359C101.13 34.3359 100.771 34.2891 100.375 34.1953C99.9844 34.1016 99.6042 33.9505 99.2344 33.7422C98.8698 33.5391 98.5651 33.2708 98.3203 32.9375L99.2031 31.8281C99.5052 32.1875 99.8385 32.4505 100.203 32.6172C100.568 32.7839 100.951 32.8672 101.352 32.8672C101.784 32.8672 102.151 32.7865 102.453 32.625C102.76 32.4688 102.997 32.237 103.164 31.9297C103.331 31.6224 103.414 31.2474 103.414 30.8047V24.4609L103.586 22.5469ZM97.8438 26.8672V26.7031C97.8438 26.0625 97.9219 25.4792 98.0781 24.9531C98.2344 24.4219 98.4583 23.9661 98.75 23.5859C99.0417 23.2005 99.3958 22.9062 99.8125 22.7031C100.229 22.4948 100.701 22.3906 101.227 22.3906C101.773 22.3906 102.24 22.4896 102.625 22.6875C103.016 22.8854 103.341 23.1693 103.602 23.5391C103.862 23.9036 104.065 24.3411 104.211 24.8516C104.362 25.3568 104.474 25.9193 104.547 26.5391V27.0625C104.479 27.6667 104.365 28.2188 104.203 28.7188C104.042 29.2188 103.828 29.651 103.562 30.0156C103.297 30.3802 102.969 30.6615 102.578 30.8594C102.193 31.0573 101.737 31.1562 101.211 31.1562C100.695 31.1562 100.229 31.0495 99.8125 30.8359C99.401 30.6224 99.0469 30.3229 98.75 29.9375C98.4583 29.5521 98.2344 29.099 98.0781 28.5781C97.9219 28.0521 97.8438 27.4818 97.8438 26.8672ZM99.7266 26.7031V26.8672C99.7266 27.2526 99.763 27.612 99.8359 27.9453C99.9141 28.2786 100.031 28.5729 100.188 28.8281C100.349 29.0781 100.552 29.276 100.797 29.4219C101.047 29.5625 101.341 29.6328 101.68 29.6328C102.122 29.6328 102.484 29.5391 102.766 29.3516C103.052 29.1641 103.271 28.9115 103.422 28.5938C103.578 28.2708 103.688 27.9115 103.75 27.5156V26.1016C103.719 25.7943 103.654 25.5078 103.555 25.2422C103.461 24.9766 103.333 24.7448 103.172 24.5469C103.01 24.3438 102.807 24.1875 102.562 24.0781C102.318 23.9635 102.029 23.9062 101.695 23.9062C101.357 23.9062 101.062 23.9792 100.812 24.125C100.562 24.2708 100.357 24.4714 100.195 24.7266C100.039 24.9818 99.9219 25.2786 99.8438 25.6172C99.7656 25.9557 99.7266 26.3177 99.7266 26.7031ZM113.25 22.5469V31H111.359V22.5469H113.25ZM111.234 20.3281C111.234 20.0417 111.328 19.8047 111.516 19.6172C111.708 19.4245 111.974 19.3281 112.312 19.3281C112.646 19.3281 112.909 19.4245 113.102 19.6172C113.294 19.8047 113.391 20.0417 113.391 20.3281C113.391 20.6094 113.294 20.8438 113.102 21.0312C112.909 21.2188 112.646 21.3125 112.312 21.3125C111.974 21.3125 111.708 21.2188 111.516 21.0312C111.328 20.8438 111.234 20.6094 111.234 20.3281ZM117.18 24.3516V31H115.297V22.5469H117.07L117.18 24.3516ZM116.844 26.4609L116.234 26.4531C116.24 25.8542 116.323 25.3047 116.484 24.8047C116.651 24.3047 116.88 23.875 117.172 23.5156C117.469 23.1562 117.823 22.8802 118.234 22.6875C118.646 22.4896 119.104 22.3906 119.609 22.3906C120.016 22.3906 120.383 22.4479 120.711 22.5625C121.044 22.6719 121.328 22.8516 121.562 23.1016C121.802 23.3516 121.984 23.6771 122.109 24.0781C122.234 24.474 122.297 24.9609 122.297 25.5391V31H120.406V25.5312C120.406 25.125 120.346 24.8047 120.227 24.5703C120.112 24.3307 119.943 24.1615 119.719 24.0625C119.5 23.9583 119.227 23.9062 118.898 23.9062C118.576 23.9062 118.286 23.974 118.031 24.1094C117.776 24.2448 117.56 24.4297 117.383 24.6641C117.211 24.8984 117.078 25.1693 116.984 25.4766C116.891 25.7839 116.844 26.112 116.844 26.4609ZM130.5 29.125L132.453 22.5469H133.656L133.328 24.5156L131.359 31H130.281L130.5 29.125ZM129.352 22.5469L130.875 29.1562L131 31H129.797L127.508 22.5469H129.352ZM135.484 29.0781L136.961 22.5469H138.797L136.516 31H135.312L135.484 29.0781ZM133.859 22.5469L135.789 29.0469L136.031 31H134.953L132.961 24.5078L132.633 22.5469H133.859ZM142.094 22.5469V31H140.203V22.5469H142.094ZM140.078 20.3281C140.078 20.0417 140.172 19.8047 140.359 19.6172C140.552 19.4245 140.818 19.3281 141.156 19.3281C141.49 19.3281 141.753 19.4245 141.945 19.6172C142.138 19.8047 142.234 20.0417 142.234 20.3281C142.234 20.6094 142.138 20.8438 141.945 21.0312C141.753 21.2188 141.49 21.3125 141.156 21.3125C140.818 21.3125 140.552 21.2188 140.359 21.0312C140.172 20.8438 140.078 20.6094 140.078 20.3281ZM148.031 22.5469V23.9219H143.266V22.5469H148.031ZM144.641 20.4766H146.523V28.6641C146.523 28.9245 146.56 29.125 146.633 29.2656C146.711 29.401 146.818 29.4922 146.953 29.5391C147.089 29.5859 147.247 29.6094 147.43 29.6094C147.56 29.6094 147.685 29.6016 147.805 29.5859C147.924 29.5703 148.021 29.5547 148.094 29.5391L148.102 30.9766C147.945 31.0234 147.763 31.0651 147.555 31.1016C147.352 31.138 147.117 31.1562 146.852 31.1562C146.419 31.1562 146.036 31.0807 145.703 30.9297C145.37 30.7734 145.109 30.5208 144.922 30.1719C144.734 29.8229 144.641 29.3594 144.641 28.7812V20.4766ZM151.344 19V31H149.469V19H151.344ZM151.016 26.4609L150.406 26.4531C150.411 25.8698 150.492 25.3307 150.648 24.8359C150.81 24.3411 151.034 23.9115 151.32 23.5469C151.612 23.1771 151.961 22.8932 152.367 22.6953C152.773 22.4922 153.224 22.3906 153.719 22.3906C154.135 22.3906 154.51 22.4479 154.844 22.5625C155.182 22.6771 155.474 22.862 155.719 23.1172C155.964 23.3672 156.148 23.6953 156.273 24.1016C156.404 24.5026 156.469 24.9922 156.469 25.5703V31H154.578V25.5547C154.578 25.1484 154.518 24.8255 154.398 24.5859C154.284 24.3464 154.115 24.1745 153.891 24.0703C153.667 23.9609 153.393 23.9062 153.07 23.9062C152.732 23.9062 152.432 23.974 152.172 24.1094C151.917 24.2448 151.703 24.4297 151.531 24.6641C151.359 24.8984 151.229 25.1693 151.141 25.4766C151.057 25.7839 151.016 26.112 151.016 26.4609ZM166.977 21.1406L163.578 31H161.523L165.805 19.625H167.117L166.977 21.1406ZM169.82 31L166.414 21.1406L166.266 19.625H167.586L171.883 31H169.82ZM169.656 26.7812V28.3359H163.469V26.7812H169.656ZM174.719 24.1719V34.25H172.836V22.5469H174.57L174.719 24.1719ZM180.227 26.6953V26.8594C180.227 27.474 180.154 28.0443 180.008 28.5703C179.867 29.0911 179.656 29.5469 179.375 29.9375C179.099 30.3229 178.758 30.6224 178.352 30.8359C177.945 31.0495 177.477 31.1562 176.945 31.1562C176.419 31.1562 175.958 31.0599 175.562 30.8672C175.172 30.6693 174.841 30.3906 174.57 30.0312C174.299 29.6719 174.081 29.25 173.914 28.7656C173.753 28.276 173.638 27.7396 173.57 27.1562V26.5234C173.638 25.9036 173.753 25.3411 173.914 24.8359C174.081 24.3307 174.299 23.8958 174.57 23.5312C174.841 23.1667 175.172 22.8854 175.562 22.6875C175.953 22.4896 176.409 22.3906 176.93 22.3906C177.461 22.3906 177.932 22.4948 178.344 22.7031C178.755 22.9062 179.102 23.1979 179.383 23.5781C179.664 23.9531 179.875 24.4062 180.016 24.9375C180.156 25.4635 180.227 26.0495 180.227 26.6953ZM178.344 26.8594V26.6953C178.344 26.3047 178.307 25.9427 178.234 25.6094C178.161 25.2708 178.047 24.974 177.891 24.7188C177.734 24.4635 177.534 24.2656 177.289 24.125C177.049 23.9792 176.76 23.9062 176.422 23.9062C176.089 23.9062 175.802 23.9635 175.562 24.0781C175.323 24.1875 175.122 24.3411 174.961 24.5391C174.799 24.737 174.674 24.9688 174.586 25.2344C174.497 25.4948 174.435 25.7786 174.398 26.0859V27.6016C174.461 27.9766 174.568 28.3203 174.719 28.6328C174.87 28.9453 175.083 29.1953 175.359 29.3828C175.641 29.5651 176 29.6562 176.438 29.6562C176.776 29.6562 177.065 29.5833 177.305 29.4375C177.544 29.2917 177.74 29.0911 177.891 28.8359C178.047 28.5755 178.161 28.276 178.234 27.9375C178.307 27.599 178.344 27.2396 178.344 26.8594ZM183.719 24.1719V34.25H181.836V22.5469H183.57L183.719 24.1719ZM189.227 26.6953V26.8594C189.227 27.474 189.154 28.0443 189.008 28.5703C188.867 29.0911 188.656 29.5469 188.375 29.9375C188.099 30.3229 187.758 30.6224 187.352 30.8359C186.945 31.0495 186.477 31.1562 185.945 31.1562C185.419 31.1562 184.958 31.0599 184.562 30.8672C184.172 30.6693 183.841 30.3906 183.57 30.0312C183.299 29.6719 183.081 29.25 182.914 28.7656C182.753 28.276 182.638 27.7396 182.57 27.1562V26.5234C182.638 25.9036 182.753 25.3411 182.914 24.8359C183.081 24.3307 183.299 23.8958 183.57 23.5312C183.841 23.1667 184.172 22.8854 184.562 22.6875C184.953 22.4896 185.409 22.3906 185.93 22.3906C186.461 22.3906 186.932 22.4948 187.344 22.7031C187.755 22.9062 188.102 23.1979 188.383 23.5781C188.664 23.9531 188.875 24.4062 189.016 24.9375C189.156 25.4635 189.227 26.0495 189.227 26.6953ZM187.344 26.8594V26.6953C187.344 26.3047 187.307 25.9427 187.234 25.6094C187.161 25.2708 187.047 24.974 186.891 24.7188C186.734 24.4635 186.534 24.2656 186.289 24.125C186.049 23.9792 185.76 23.9062 185.422 23.9062C185.089 23.9062 184.802 23.9635 184.562 24.0781C184.323 24.1875 184.122 24.3411 183.961 24.5391C183.799 24.737 183.674 24.9688 183.586 25.2344C183.497 25.4948 183.435 25.7786 183.398 26.0859V27.6016C183.461 27.9766 183.568 28.3203 183.719 28.6328C183.87 28.9453 184.083 29.1953 184.359 29.3828C184.641 29.5651 185 29.6562 185.438 29.6562C185.776 29.6562 186.065 29.5833 186.305 29.4375C186.544 29.2917 186.74 29.0911 186.891 28.8359C187.047 28.5755 187.161 28.276 187.234 27.9375C187.307 27.599 187.344 27.2396 187.344 26.8594ZM192.844 19V31H190.953V19H192.844ZM198.633 31.1562C198.008 31.1562 197.443 31.0547 196.938 30.8516C196.438 30.6432 196.01 30.3542 195.656 29.9844C195.307 29.6146 195.039 29.1797 194.852 28.6797C194.664 28.1797 194.57 27.6406 194.57 27.0625V26.75C194.57 26.0885 194.667 25.4896 194.859 24.9531C195.052 24.4167 195.32 23.9583 195.664 23.5781C196.008 23.1927 196.414 22.8984 196.883 22.6953C197.352 22.4922 197.859 22.3906 198.406 22.3906C199.01 22.3906 199.539 22.4922 199.992 22.6953C200.445 22.8984 200.82 23.1849 201.117 23.5547C201.419 23.9193 201.643 24.3542 201.789 24.8594C201.94 25.3646 202.016 25.9219 202.016 26.5312V27.3359H195.484V25.9844H200.156V25.8359C200.146 25.4974 200.078 25.1797 199.953 24.8828C199.833 24.5859 199.648 24.3464 199.398 24.1641C199.148 23.9818 198.815 23.8906 198.398 23.8906C198.086 23.8906 197.807 23.9583 197.562 24.0938C197.323 24.224 197.122 24.4141 196.961 24.6641C196.799 24.9141 196.674 25.2161 196.586 25.5703C196.503 25.9193 196.461 26.3125 196.461 26.75V27.0625C196.461 27.4323 196.51 27.776 196.609 28.0938C196.714 28.4062 196.865 28.6797 197.062 28.9141C197.26 29.1484 197.5 29.3333 197.781 29.4688C198.062 29.599 198.383 29.6641 198.742 29.6641C199.195 29.6641 199.599 29.5729 199.953 29.3906C200.307 29.2083 200.615 28.9505 200.875 28.6172L201.867 29.5781C201.685 29.8438 201.448 30.099 201.156 30.3438C200.865 30.5833 200.508 30.7786 200.086 30.9297C199.669 31.0807 199.185 31.1562 198.633 31.1562Z" fill="#4E5D78"/>
<path d="M54 29.6827C53.7387 30.484 53.3266 31.2853 52.7638 32.0865C51.8995 33.3429 51.0385 33.9712 50.1809 33.9712C49.8526 33.9712 49.3836 33.8686 48.7739 33.6635C48.1977 33.4583 47.6918 33.3558 47.2563 33.3558C46.8476 33.3558 46.3719 33.4615 45.8291 33.6731C45.2864 33.891 44.8442 34 44.5025 34C43.4841 34 42.4757 33.1699 41.4774 31.5096C40.4925 29.8365 40 28.2244 40 26.6731C40 25.2115 40.3786 24.0128 41.1357 23.0769C41.8928 22.1538 42.8442 21.6923 43.9899 21.6923C44.4724 21.6923 45.0653 21.7885 45.7688 21.9808C46.4657 22.1731 46.928 22.2692 47.1558 22.2692C47.4573 22.2692 47.9363 22.1603 48.593 21.9423C49.2764 21.7244 49.8559 21.6154 50.3317 21.6154C51.129 21.6154 51.8425 21.8237 52.4724 22.2404C52.8208 22.4712 53.1692 22.7917 53.5176 23.2019C52.9883 23.6314 52.6064 24.0096 52.3719 24.3365C51.9363 24.9391 51.7186 25.6026 51.7186 26.3269C51.7186 27.1218 51.9497 27.8365 52.4121 28.4712C52.8744 29.1058 53.4037 29.5096 54 29.6827ZM50.2211 18.4038C50.2211 18.7949 50.124 19.2308 49.9296 19.7115C49.7286 20.1923 49.4171 20.6346 48.995 21.0385C48.6332 21.3846 48.2714 21.6154 47.9095 21.7308C47.6616 21.8013 47.3132 21.8558 46.8643 21.8942C46.8844 20.9391 47.1457 20.1154 47.6482 19.4231C48.1441 18.7372 48.9816 18.2628 50.1608 18C50.1675 18.0192 50.1759 18.0545 50.1859 18.1058C50.196 18.1571 50.2044 18.1923 50.2111 18.2115C50.2111 18.2372 50.2127 18.2692 50.2161 18.3077C50.2194 18.3462 50.2211 18.3782 50.2211 18.4038Z" fill="white"/>
<path d="M54 29.6827C53.7387 30.484 53.3266 31.2853 52.7638 32.0865C51.8995 33.3429 51.0385 33.9712 50.1809 33.9712C49.8526 33.9712 49.3836 33.8686 48.7739 33.6635C48.1977 33.4583 47.6918 33.3558 47.2563 33.3558C46.8476 33.3558 46.3719 33.4615 45.8291 33.6731C45.2864 33.891 44.8442 34 44.5025 34C43.4841 34 42.4757 33.1699 41.4774 31.5096C40.4925 29.8365 40 28.2244 40 26.6731C40 25.2115 40.3786 24.0128 41.1357 23.0769C41.8928 22.1538 42.8442 21.6923 43.9899 21.6923C44.4724 21.6923 45.0653 21.7885 45.7688 21.9808C46.4657 22.1731 46.928 22.2692 47.1558 22.2692C47.4573 22.2692 47.9363 22.1603 48.593 21.9423C49.2764 21.7244 49.8559 21.6154 50.3317 21.6154C51.129 21.6154 51.8425 21.8237 52.4724 22.2404C52.8208 22.4712 53.1692 22.7917 53.5176 23.2019C52.9883 23.6314 52.6064 24.0096 52.3719 24.3365C51.9363 24.9391 51.7186 25.6026 51.7186 26.3269C51.7186 27.1218 51.9497 27.8365 52.4121 28.4712C52.8744 29.1058 53.4037 29.5096 54 29.6827ZM50.2211 18.4038C50.2211 18.7949 50.124 19.2308 49.9296 19.7115C49.7286 20.1923 49.4171 20.6346 48.995 21.0385C48.6332 21.3846 48.2714 21.6154 47.9095 21.7308C47.6616 21.8013 47.3132 21.8558 46.8643 21.8942C46.8844 20.9391 47.1457 20.1154 47.6482 19.4231C48.1441 18.7372 48.9816 18.2628 50.1608 18C50.1675 18.0192 50.1759 18.0545 50.1859 18.1058C50.196 18.1571 50.2044 18.1923 50.2111 18.2115C50.2111 18.2372 50.2127 18.2692 50.2161 18.3077C50.2194 18.3462 50.2211 18.3782 50.2211 18.4038Z" fill="#4E5D78"/>
</g>
<defs>
<filter id="filter0_d_201_46" x="0" y="0" width="248" height="60" filterUnits="userSpaceOnUse" color-interpolation-filters="sRGB">
<feFlood flood-opacity="0" result="BackgroundImageFix"/>
<feColorMatrix in="SourceAlpha" type="matrix" values="0 0 0 0 0 0 0 0 0 0 0 0 0 0 0 0 0 0 127 0" result="hardAlpha"/>
<feOffset dy="4"/>
<feGaussianBlur stdDeviation="2"/>
<feComposite in2="hardAlpha" operator="out"/>
<feColorMatrix type="matrix" values="0 0 0 0 0 0 0 0 0 0 0 0 0 0 0 0 0 0 0.25 0"/>
<feBlend mode="normal" in2="BackgroundImageFix" result="effect1_dropShadow_201_46"/>
<feBlend mode="normal" in="SourceGraphic" in2="effect1_dropShadow_201_46" result="shape"/>
</filter>
</defs>
</svg>
