<svg width="248" height="60" viewBox="0 0 248 60" fill="none" xmlns="http://www.w3.org/2000/svg">
<g filter="url(#filter0_d_201_51)">
<rect x="4" width="240" height="52" rx="10" fill="white"/>
<rect x="4" width="240" height="52" rx="10" fill="#4E5D78" fill-opacity="0.05"/>
<path d="M34.8686 22.408C35.5478 21.0826 36.5897 19.9684 37.8779 19.19C39.1661 18.4115 40.6498 17.9995 42.1633 18C44.3633 18 46.2114 18.792 47.6245 20.084L45.2841 22.3784C44.4376 21.5856 43.3616 21.1816 42.1633 21.1816C40.0367 21.1816 38.2367 22.5896 37.5959 24.48C37.4327 24.96 37.3396 25.472 37.3396 26C37.3396 26.528 37.4327 27.04 37.5959 27.52C38.2376 29.4112 40.0367 30.8184 42.1633 30.8184C43.2612 30.8184 44.1959 30.5344 44.9273 30.0544C45.3514 29.7808 45.7144 29.4258 45.9944 29.0108C46.2745 28.5958 46.4658 28.1295 46.5567 27.64H42.1633V24.5456H49.8514C49.9478 25.0688 50 25.6144 50 26.1816C50 28.6184 49.1102 30.6696 47.5657 32.0616C46.2155 33.284 44.3673 34 42.1633 34C41.0911 34.0004 40.0294 33.7938 39.0388 33.3919C38.0482 32.99 37.1481 32.4007 36.39 31.6578C35.6319 30.9148 35.0306 30.0328 34.6205 29.062C34.2104 28.0912 33.9996 27.0507 34 26C34 24.7088 34.3151 23.488 34.8686 22.408Z" fill="white"/>
<path d="M34.8686 22.408C35.5478 21.0826 36.5897 19.9684 37.8779 19.19C39.1661 18.4115 40.6498 17.9995 42.1633 18C44.3633 18 46.2114 18.792 47.6245 20.084L45.2841 22.3784C44.4376 21.5856 43.3616 21.1816 42.1633 21.1816C40.0367 21.1816 38.2367 22.5896 37.5959 24.48C37.4327 24.96 37.3396 25.472 37.3396 26C37.3396 26.528 37.4327 27.04 37.5959 27.52C38.2376 29.4112 40.0367 30.8184 42.1633 30.8184C43.2612 30.8184 44.1959 30.5344 44.9273 30.0544C45.3514 29.7808 45.7144 29.4258 45.9944 29.0108C46.2745 28.5958 46.4658 28.1295 46.5567 27.64H42.1633V24.5456H49.8514C49.9478 25.0688 50 25.6144 50 26.1816C50 28.6184 49.1102 30.6696 47.5657 32.0616C46.2155 33.284 44.3673 34 42.1633 34C41.0911 34.0004 40.0294 33.7938 39.0388 33.3919C38.0482 32.99 37.1481 32.4007 36.39 31.6578C35.6319 30.9148 35.0306 30.0328 34.6205 29.062C34.2104 28.0912 33.9996 27.0507 34 26C34 24.7088 34.3151 23.488 34.8686 22.408Z" fill="#4E5D78"/>
<path d="M83.4297 29.4453V31H77.7188V29.4453H83.4297ZM78.2656 19.625V31H76.3047V19.625H78.2656ZM84.3984 26.8672V26.6875C84.3984 26.0781 84.487 25.513 84.6641 24.9922C84.8411 24.4661 85.0964 24.0104 85.4297 23.625C85.7682 23.2344 86.1797 22.9323 86.6641 22.7188C87.1536 22.5 87.7057 22.3906 88.3203 22.3906C88.9401 22.3906 89.4922 22.5 89.9766 22.7188C90.4661 22.9323 90.8802 23.2344 91.2188 23.625C91.5573 24.0104 91.8151 24.4661 91.9922 24.9922C92.1693 25.513 92.2578 26.0781 92.2578 26.6875V26.8672C92.2578 27.4766 92.1693 28.0417 91.9922 28.5625C91.8151 29.0833 91.5573 29.5391 91.2188 29.9297C90.8802 30.3151 90.4688 30.6172 89.9844 30.8359C89.5 31.0495 88.9505 31.1562 88.3359 31.1562C87.7161 31.1562 87.1615 31.0495 86.6719 30.8359C86.1875 30.6172 85.776 30.3151 85.4375 29.9297C85.099 29.5391 84.8411 29.0833 84.6641 28.5625C84.487 28.0417 84.3984 27.4766 84.3984 26.8672ZM86.2812 26.6875V26.8672C86.2812 27.2474 86.3203 27.6068 86.3984 27.9453C86.4766 28.2839 86.599 28.5807 86.7656 28.8359C86.9323 29.0911 87.1458 29.2917 87.4062 29.4375C87.6667 29.5833 87.9766 29.6562 88.3359 29.6562C88.6849 29.6562 88.987 29.5833 89.2422 29.4375C89.5026 29.2917 89.7161 29.0911 89.8828 28.8359C90.0495 28.5807 90.1719 28.2839 90.25 27.9453C90.3333 27.6068 90.375 27.2474 90.375 26.8672V26.6875C90.375 26.3125 90.3333 25.9583 90.25 25.625C90.1719 25.2865 90.0469 24.987 89.875 24.7266C89.7083 24.4661 89.4948 24.263 89.2344 24.1172C88.9792 23.9661 88.6745 23.8906 88.3203 23.8906C87.9661 23.8906 87.6589 23.9661 87.3984 24.1172C87.1432 24.263 86.9323 24.4661 86.7656 24.7266C86.599 24.987 86.4766 25.2865 86.3984 25.625C86.3203 25.9583 86.2812 26.3125 86.2812 26.6875ZM99.25 22.5469H100.961V30.7656C100.961 31.526 100.799 32.1719 100.477 32.7031C100.154 33.2344 99.7031 33.638 99.125 33.9141C98.5469 34.1953 97.8776 34.3359 97.1172 34.3359C96.7943 34.3359 96.4349 34.2891 96.0391 34.1953C95.6484 34.1016 95.2682 33.9505 94.8984 33.7422C94.5339 33.5391 94.2292 33.2708 93.9844 32.9375L94.8672 31.8281C95.1693 32.1875 95.5026 32.4505 95.8672 32.6172C96.2318 32.7839 96.6146 32.8672 97.0156 32.8672C97.4479 32.8672 97.8151 32.7865 98.1172 32.625C98.4245 32.4688 98.6615 32.237 98.8281 31.9297C98.9948 31.6224 99.0781 31.2474 99.0781 30.8047V24.4609L99.25 22.5469ZM93.5078 26.8672V26.7031C93.5078 26.0625 93.5859 25.4792 93.7422 24.9531C93.8984 24.4219 94.1224 23.9661 94.4141 23.5859C94.7057 23.2005 95.0599 22.9062 95.4766 22.7031C95.8932 22.4948 96.3646 22.3906 96.8906 22.3906C97.4375 22.3906 97.9036 22.4896 98.2891 22.6875C98.6797 22.8854 99.0052 23.1693 99.2656 23.5391C99.526 23.9036 99.7292 24.3411 99.875 24.8516C100.026 25.3568 100.138 25.9193 100.211 26.5391V27.0625C100.143 27.6667 100.029 28.2188 99.8672 28.7188C99.7057 29.2188 99.4922 29.651 99.2266 30.0156C98.9609 30.3802 98.6328 30.6615 98.2422 30.8594C97.8568 31.0573 97.401 31.1562 96.875 31.1562C96.3594 31.1562 95.8932 31.0495 95.4766 30.8359C95.0651 30.6224 94.7109 30.3229 94.4141 29.9375C94.1224 29.5521 93.8984 29.099 93.7422 28.5781C93.5859 28.0521 93.5078 27.4818 93.5078 26.8672ZM95.3906 26.7031V26.8672C95.3906 27.2526 95.4271 27.612 95.5 27.9453C95.5781 28.2786 95.6953 28.5729 95.8516 28.8281C96.013 29.0781 96.2161 29.276 96.4609 29.4219C96.7109 29.5625 97.0052 29.6328 97.3438 29.6328C97.7865 29.6328 98.1484 29.5391 98.4297 29.3516C98.7161 29.1641 98.9349 28.9115 99.0859 28.5938C99.2422 28.2708 99.3516 27.9115 99.4141 27.5156V26.1016C99.3828 25.7943 99.3177 25.5078 99.2188 25.2422C99.125 24.9766 98.9974 24.7448 98.8359 24.5469C98.6745 24.3438 98.4714 24.1875 98.2266 24.0781C97.9818 23.9635 97.6927 23.9062 97.3594 23.9062C97.0208 23.9062 96.7266 23.9792 96.4766 24.125C96.2266 24.2708 96.0208 24.4714 95.8594 24.7266C95.7031 24.9818 95.5859 25.2786 95.5078 25.6172C95.4297 25.9557 95.3906 26.3177 95.3906 26.7031ZM108.914 22.5469V31H107.023V22.5469H108.914ZM106.898 20.3281C106.898 20.0417 106.992 19.8047 107.18 19.6172C107.372 19.4245 107.638 19.3281 107.977 19.3281C108.31 19.3281 108.573 19.4245 108.766 19.6172C108.958 19.8047 109.055 20.0417 109.055 20.3281C109.055 20.6094 108.958 20.8438 108.766 21.0312C108.573 21.2188 108.31 21.3125 107.977 21.3125C107.638 21.3125 107.372 21.2188 107.18 21.0312C106.992 20.8438 106.898 20.6094 106.898 20.3281ZM112.844 24.3516V31H110.961V22.5469H112.734L112.844 24.3516ZM112.508 26.4609L111.898 26.4531C111.904 25.8542 111.987 25.3047 112.148 24.8047C112.315 24.3047 112.544 23.875 112.836 23.5156C113.133 23.1562 113.487 22.8802 113.898 22.6875C114.31 22.4896 114.768 22.3906 115.273 22.3906C115.68 22.3906 116.047 22.4479 116.375 22.5625C116.708 22.6719 116.992 22.8516 117.227 23.1016C117.466 23.3516 117.648 23.6771 117.773 24.0781C117.898 24.474 117.961 24.9609 117.961 25.5391V31H116.07V25.5312C116.07 25.125 116.01 24.8047 115.891 24.5703C115.776 24.3307 115.607 24.1615 115.383 24.0625C115.164 23.9583 114.891 23.9062 114.562 23.9062C114.24 23.9062 113.951 23.974 113.695 24.1094C113.44 24.2448 113.224 24.4297 113.047 24.6641C112.875 24.8984 112.742 25.1693 112.648 25.4766C112.555 25.7839 112.508 26.112 112.508 26.4609ZM126.164 29.125L128.117 22.5469H129.32L128.992 24.5156L127.023 31H125.945L126.164 29.125ZM125.016 22.5469L126.539 29.1562L126.664 31H125.461L123.172 22.5469H125.016ZM131.148 29.0781L132.625 22.5469H134.461L132.18 31H130.977L131.148 29.0781ZM129.523 22.5469L131.453 29.0469L131.695 31H130.617L128.625 24.5078L128.297 22.5469H129.523ZM137.758 22.5469V31H135.867V22.5469H137.758ZM135.742 20.3281C135.742 20.0417 135.836 19.8047 136.023 19.6172C136.216 19.4245 136.482 19.3281 136.82 19.3281C137.154 19.3281 137.417 19.4245 137.609 19.6172C137.802 19.8047 137.898 20.0417 137.898 20.3281C137.898 20.6094 137.802 20.8438 137.609 21.0312C137.417 21.2188 137.154 21.3125 136.82 21.3125C136.482 21.3125 136.216 21.2188 136.023 21.0312C135.836 20.8438 135.742 20.6094 135.742 20.3281ZM143.695 22.5469V23.9219H138.93V22.5469H143.695ZM140.305 20.4766H142.188V28.6641C142.188 28.9245 142.224 29.125 142.297 29.2656C142.375 29.401 142.482 29.4922 142.617 29.5391C142.753 29.5859 142.911 29.6094 143.094 29.6094C143.224 29.6094 143.349 29.6016 143.469 29.5859C143.589 29.5703 143.685 29.5547 143.758 29.5391L143.766 30.9766C143.609 31.0234 143.427 31.0651 143.219 31.1016C143.016 31.138 142.781 31.1562 142.516 31.1562C142.083 31.1562 141.701 31.0807 141.367 30.9297C141.034 30.7734 140.773 30.5208 140.586 30.1719C140.398 29.8229 140.305 29.3594 140.305 28.7812V20.4766ZM147.008 19V31H145.133V19H147.008ZM146.68 26.4609L146.07 26.4531C146.076 25.8698 146.156 25.3307 146.312 24.8359C146.474 24.3411 146.698 23.9115 146.984 23.5469C147.276 23.1771 147.625 22.8932 148.031 22.6953C148.438 22.4922 148.888 22.3906 149.383 22.3906C149.799 22.3906 150.174 22.4479 150.508 22.5625C150.846 22.6771 151.138 22.862 151.383 23.1172C151.628 23.3672 151.812 23.6953 151.938 24.1016C152.068 24.5026 152.133 24.9922 152.133 25.5703V31H150.242V25.5547C150.242 25.1484 150.182 24.8255 150.062 24.5859C149.948 24.3464 149.779 24.1745 149.555 24.0703C149.331 23.9609 149.057 23.9062 148.734 23.9062C148.396 23.9062 148.096 23.974 147.836 24.1094C147.581 24.2448 147.367 24.4297 147.195 24.6641C147.023 24.8984 146.893 25.1693 146.805 25.4766C146.721 25.7839 146.68 26.112 146.68 26.4609ZM166.945 25.1875V29.5312C166.784 29.7448 166.531 29.9792 166.188 30.2344C165.849 30.4844 165.398 30.7005 164.836 30.8828C164.273 31.0651 163.573 31.1562 162.734 31.1562C162.021 31.1562 161.367 31.0365 160.773 30.7969C160.18 30.5521 159.667 30.1953 159.234 29.7266C158.807 29.2578 158.477 28.6875 158.242 28.0156C158.008 27.3385 157.891 26.5677 157.891 25.7031V24.9141C157.891 24.0547 157.997 23.2891 158.211 22.6172C158.43 21.9401 158.742 21.3672 159.148 20.8984C159.555 20.4297 160.044 20.0755 160.617 19.8359C161.195 19.5911 161.849 19.4688 162.578 19.4688C163.51 19.4688 164.281 19.625 164.891 19.9375C165.505 20.2448 165.979 20.6719 166.312 21.2188C166.646 21.7656 166.857 22.3906 166.945 23.0938H165.023C164.961 22.6979 164.839 22.3438 164.656 22.0312C164.479 21.7188 164.224 21.474 163.891 21.2969C163.562 21.1146 163.135 21.0234 162.609 21.0234C162.156 21.0234 161.758 21.1094 161.414 21.2812C161.07 21.4531 160.784 21.7057 160.555 22.0391C160.331 22.3724 160.161 22.7786 160.047 23.2578C159.932 23.737 159.875 24.2839 159.875 24.8984V25.7031C159.875 26.3281 159.94 26.8828 160.07 27.3672C160.206 27.8516 160.398 28.2604 160.648 28.5938C160.904 28.9271 161.214 29.1797 161.578 29.3516C161.943 29.5182 162.354 29.6016 162.812 29.6016C163.26 29.6016 163.628 29.5651 163.914 29.4922C164.201 29.4141 164.427 29.3229 164.594 29.2188C164.766 29.1094 164.898 29.0052 164.992 28.9062V26.6484H162.625V25.1875H166.945ZM168.57 26.8672V26.6875C168.57 26.0781 168.659 25.513 168.836 24.9922C169.013 24.4661 169.268 24.0104 169.602 23.625C169.94 23.2344 170.352 22.9323 170.836 22.7188C171.326 22.5 171.878 22.3906 172.492 22.3906C173.112 22.3906 173.664 22.5 174.148 22.7188C174.638 22.9323 175.052 23.2344 175.391 23.625C175.729 24.0104 175.987 24.4661 176.164 24.9922C176.341 25.513 176.43 26.0781 176.43 26.6875V26.8672C176.43 27.4766 176.341 28.0417 176.164 28.5625C175.987 29.0833 175.729 29.5391 175.391 29.9297C175.052 30.3151 174.641 30.6172 174.156 30.8359C173.672 31.0495 173.122 31.1562 172.508 31.1562C171.888 31.1562 171.333 31.0495 170.844 30.8359C170.359 30.6172 169.948 30.3151 169.609 29.9297C169.271 29.5391 169.013 29.0833 168.836 28.5625C168.659 28.0417 168.57 27.4766 168.57 26.8672ZM170.453 26.6875V26.8672C170.453 27.2474 170.492 27.6068 170.57 27.9453C170.648 28.2839 170.771 28.5807 170.938 28.8359C171.104 29.0911 171.318 29.2917 171.578 29.4375C171.839 29.5833 172.148 29.6562 172.508 29.6562C172.857 29.6562 173.159 29.5833 173.414 29.4375C173.674 29.2917 173.888 29.0911 174.055 28.8359C174.221 28.5807 174.344 28.2839 174.422 27.9453C174.505 27.6068 174.547 27.2474 174.547 26.8672V26.6875C174.547 26.3125 174.505 25.9583 174.422 25.625C174.344 25.2865 174.219 24.987 174.047 24.7266C173.88 24.4661 173.667 24.263 173.406 24.1172C173.151 23.9661 172.846 23.8906 172.492 23.8906C172.138 23.8906 171.831 23.9661 171.57 24.1172C171.315 24.263 171.104 24.4661 170.938 24.7266C170.771 24.987 170.648 25.2865 170.57 25.625C170.492 25.9583 170.453 26.3125 170.453 26.6875ZM177.648 26.8672V26.6875C177.648 26.0781 177.737 25.513 177.914 24.9922C178.091 24.4661 178.346 24.0104 178.68 23.625C179.018 23.2344 179.43 22.9323 179.914 22.7188C180.404 22.5 180.956 22.3906 181.57 22.3906C182.19 22.3906 182.742 22.5 183.227 22.7188C183.716 22.9323 184.13 23.2344 184.469 23.625C184.807 24.0104 185.065 24.4661 185.242 24.9922C185.419 25.513 185.508 26.0781 185.508 26.6875V26.8672C185.508 27.4766 185.419 28.0417 185.242 28.5625C185.065 29.0833 184.807 29.5391 184.469 29.9297C184.13 30.3151 183.719 30.6172 183.234 30.8359C182.75 31.0495 182.201 31.1562 181.586 31.1562C180.966 31.1562 180.411 31.0495 179.922 30.8359C179.438 30.6172 179.026 30.3151 178.688 29.9297C178.349 29.5391 178.091 29.0833 177.914 28.5625C177.737 28.0417 177.648 27.4766 177.648 26.8672ZM179.531 26.6875V26.8672C179.531 27.2474 179.57 27.6068 179.648 27.9453C179.727 28.2839 179.849 28.5807 180.016 28.8359C180.182 29.0911 180.396 29.2917 180.656 29.4375C180.917 29.5833 181.227 29.6562 181.586 29.6562C181.935 29.6562 182.237 29.5833 182.492 29.4375C182.753 29.2917 182.966 29.0911 183.133 28.8359C183.299 28.5807 183.422 28.2839 183.5 27.9453C183.583 27.6068 183.625 27.2474 183.625 26.8672V26.6875C183.625 26.3125 183.583 25.9583 183.5 25.625C183.422 25.2865 183.297 24.987 183.125 24.7266C182.958 24.4661 182.745 24.263 182.484 24.1172C182.229 23.9661 181.924 23.8906 181.57 23.8906C181.216 23.8906 180.909 23.9661 180.648 24.1172C180.393 24.263 180.182 24.4661 180.016 24.7266C179.849 24.987 179.727 25.2865 179.648 25.625C179.57 25.9583 179.531 26.3125 179.531 26.6875ZM192.5 22.5469H194.211V30.7656C194.211 31.526 194.049 32.1719 193.727 32.7031C193.404 33.2344 192.953 33.638 192.375 33.9141C191.797 34.1953 191.128 34.3359 190.367 34.3359C190.044 34.3359 189.685 34.2891 189.289 34.1953C188.898 34.1016 188.518 33.9505 188.148 33.7422C187.784 33.5391 187.479 33.2708 187.234 32.9375L188.117 31.8281C188.419 32.1875 188.753 32.4505 189.117 32.6172C189.482 32.7839 189.865 32.8672 190.266 32.8672C190.698 32.8672 191.065 32.7865 191.367 32.625C191.674 32.4688 191.911 32.237 192.078 31.9297C192.245 31.6224 192.328 31.2474 192.328 30.8047V24.4609L192.5 22.5469ZM186.758 26.8672V26.7031C186.758 26.0625 186.836 25.4792 186.992 24.9531C187.148 24.4219 187.372 23.9661 187.664 23.5859C187.956 23.2005 188.31 22.9062 188.727 22.7031C189.143 22.4948 189.615 22.3906 190.141 22.3906C190.688 22.3906 191.154 22.4896 191.539 22.6875C191.93 22.8854 192.255 23.1693 192.516 23.5391C192.776 23.9036 192.979 24.3411 193.125 24.8516C193.276 25.3568 193.388 25.9193 193.461 26.5391V27.0625C193.393 27.6667 193.279 28.2188 193.117 28.7188C192.956 29.2188 192.742 29.651 192.477 30.0156C192.211 30.3802 191.883 30.6615 191.492 30.8594C191.107 31.0573 190.651 31.1562 190.125 31.1562C189.609 31.1562 189.143 31.0495 188.727 30.8359C188.315 30.6224 187.961 30.3229 187.664 29.9375C187.372 29.5521 187.148 29.099 186.992 28.5781C186.836 28.0521 186.758 27.4818 186.758 26.8672ZM188.641 26.7031V26.8672C188.641 27.2526 188.677 27.612 188.75 27.9453C188.828 28.2786 188.945 28.5729 189.102 28.8281C189.263 29.0781 189.466 29.276 189.711 29.4219C189.961 29.5625 190.255 29.6328 190.594 29.6328C191.036 29.6328 191.398 29.5391 191.68 29.3516C191.966 29.1641 192.185 28.9115 192.336 28.5938C192.492 28.2708 192.602 27.9115 192.664 27.5156V26.1016C192.633 25.7943 192.568 25.5078 192.469 25.2422C192.375 24.9766 192.247 24.7448 192.086 24.5469C191.924 24.3438 191.721 24.1875 191.477 24.0781C191.232 23.9635 190.943 23.9062 190.609 23.9062C190.271 23.9062 189.977 23.9792 189.727 24.125C189.477 24.2708 189.271 24.4714 189.109 24.7266C188.953 24.9818 188.836 25.2786 188.758 25.6172C188.68 25.9557 188.641 26.3177 188.641 26.7031ZM198.18 19V31H196.289V19H198.18ZM203.969 31.1562C203.344 31.1562 202.779 31.0547 202.273 30.8516C201.773 30.6432 201.346 30.3542 200.992 29.9844C200.643 29.6146 200.375 29.1797 200.188 28.6797C200 28.1797 199.906 27.6406 199.906 27.0625V26.75C199.906 26.0885 200.003 25.4896 200.195 24.9531C200.388 24.4167 200.656 23.9583 201 23.5781C201.344 23.1927 201.75 22.8984 202.219 22.6953C202.688 22.4922 203.195 22.3906 203.742 22.3906C204.346 22.3906 204.875 22.4922 205.328 22.6953C205.781 22.8984 206.156 23.1849 206.453 23.5547C206.755 23.9193 206.979 24.3542 207.125 24.8594C207.276 25.3646 207.352 25.9219 207.352 26.5312V27.3359H200.82V25.9844H205.492V25.8359C205.482 25.4974 205.414 25.1797 205.289 24.8828C205.169 24.5859 204.984 24.3464 204.734 24.1641C204.484 23.9818 204.151 23.8906 203.734 23.8906C203.422 23.8906 203.143 23.9583 202.898 24.0938C202.659 24.224 202.458 24.4141 202.297 24.6641C202.135 24.9141 202.01 25.2161 201.922 25.5703C201.839 25.9193 201.797 26.3125 201.797 26.75V27.0625C201.797 27.4323 201.846 27.776 201.945 28.0938C202.049 28.4062 202.201 28.6797 202.398 28.9141C202.596 29.1484 202.836 29.3333 203.117 29.4688C203.398 29.599 203.719 29.6641 204.078 29.6641C204.531 29.6641 204.935 29.5729 205.289 29.3906C205.643 29.2083 205.951 28.9505 206.211 28.6172L207.203 29.5781C207.021 29.8438 206.784 30.099 206.492 30.3438C206.201 30.5833 205.844 30.7786 205.422 30.9297C205.005 31.0807 204.521 31.1562 203.969 31.1562Z" fill="white"/>
<path d="M83.4297 29.4453V31H77.7188V29.4453H83.4297ZM78.2656 19.625V31H76.3047V19.625H78.2656ZM84.3984 26.8672V26.6875C84.3984 26.0781 84.487 25.513 84.6641 24.9922C84.8411 24.4661 85.0964 24.0104 85.4297 23.625C85.7682 23.2344 86.1797 22.9323 86.6641 22.7188C87.1536 22.5 87.7057 22.3906 88.3203 22.3906C88.9401 22.3906 89.4922 22.5 89.9766 22.7188C90.4661 22.9323 90.8802 23.2344 91.2188 23.625C91.5573 24.0104 91.8151 24.4661 91.9922 24.9922C92.1693 25.513 92.2578 26.0781 92.2578 26.6875V26.8672C92.2578 27.4766 92.1693 28.0417 91.9922 28.5625C91.8151 29.0833 91.5573 29.5391 91.2188 29.9297C90.8802 30.3151 90.4688 30.6172 89.9844 30.8359C89.5 31.0495 88.9505 31.1562 88.3359 31.1562C87.7161 31.1562 87.1615 31.0495 86.6719 30.8359C86.1875 30.6172 85.776 30.3151 85.4375 29.9297C85.099 29.5391 84.8411 29.0833 84.6641 28.5625C84.487 28.0417 84.3984 27.4766 84.3984 26.8672ZM86.2812 26.6875V26.8672C86.2812 27.2474 86.3203 27.6068 86.3984 27.9453C86.4766 28.2839 86.599 28.5807 86.7656 28.8359C86.9323 29.0911 87.1458 29.2917 87.4062 29.4375C87.6667 29.5833 87.9766 29.6562 88.3359 29.6562C88.6849 29.6562 88.987 29.5833 89.2422 29.4375C89.5026 29.2917 89.7161 29.0911 89.8828 28.8359C90.0495 28.5807 90.1719 28.2839 90.25 27.9453C90.3333 27.6068 90.375 27.2474 90.375 26.8672V26.6875C90.375 26.3125 90.3333 25.9583 90.25 25.625C90.1719 25.2865 90.0469 24.987 89.875 24.7266C89.7083 24.4661 89.4948 24.263 89.2344 24.1172C88.9792 23.9661 88.6745 23.8906 88.3203 23.8906C87.9661 23.8906 87.6589 23.9661 87.3984 24.1172C87.1432 24.263 86.9323 24.4661 86.7656 24.7266C86.599 24.987 86.4766 25.2865 86.3984 25.625C86.3203 25.9583 86.2812 26.3125 86.2812 26.6875ZM99.25 22.5469H100.961V30.7656C100.961 31.526 100.799 32.1719 100.477 32.7031C100.154 33.2344 99.7031 33.638 99.125 33.9141C98.5469 34.1953 97.8776 34.3359 97.1172 34.3359C96.7943 34.3359 96.4349 34.2891 96.0391 34.1953C95.6484 34.1016 95.2682 33.9505 94.8984 33.7422C94.5339 33.5391 94.2292 33.2708 93.9844 32.9375L94.8672 31.8281C95.1693 32.1875 95.5026 32.4505 95.8672 32.6172C96.2318 32.7839 96.6146 32.8672 97.0156 32.8672C97.4479 32.8672 97.8151 32.7865 98.1172 32.625C98.4245 32.4688 98.6615 32.237 98.8281 31.9297C98.9948 31.6224 99.0781 31.2474 99.0781 30.8047V24.4609L99.25 22.5469ZM93.5078 26.8672V26.7031C93.5078 26.0625 93.5859 25.4792 93.7422 24.9531C93.8984 24.4219 94.1224 23.9661 94.4141 23.5859C94.7057 23.2005 95.0599 22.9062 95.4766 22.7031C95.8932 22.4948 96.3646 22.3906 96.8906 22.3906C97.4375 22.3906 97.9036 22.4896 98.2891 22.6875C98.6797 22.8854 99.0052 23.1693 99.2656 23.5391C99.526 23.9036 99.7292 24.3411 99.875 24.8516C100.026 25.3568 100.138 25.9193 100.211 26.5391V27.0625C100.143 27.6667 100.029 28.2188 99.8672 28.7188C99.7057 29.2188 99.4922 29.651 99.2266 30.0156C98.9609 30.3802 98.6328 30.6615 98.2422 30.8594C97.8568 31.0573 97.401 31.1562 96.875 31.1562C96.3594 31.1562 95.8932 31.0495 95.4766 30.8359C95.0651 30.6224 94.7109 30.3229 94.4141 29.9375C94.1224 29.5521 93.8984 29.099 93.7422 28.5781C93.5859 28.0521 93.5078 27.4818 93.5078 26.8672ZM95.3906 26.7031V26.8672C95.3906 27.2526 95.4271 27.612 95.5 27.9453C95.5781 28.2786 95.6953 28.5729 95.8516 28.8281C96.013 29.0781 96.2161 29.276 96.4609 29.4219C96.7109 29.5625 97.0052 29.6328 97.3438 29.6328C97.7865 29.6328 98.1484 29.5391 98.4297 29.3516C98.7161 29.1641 98.9349 28.9115 99.0859 28.5938C99.2422 28.2708 99.3516 27.9115 99.4141 27.5156V26.1016C99.3828 25.7943 99.3177 25.5078 99.2188 25.2422C99.125 24.9766 98.9974 24.7448 98.8359 24.5469C98.6745 24.3438 98.4714 24.1875 98.2266 24.0781C97.9818 23.9635 97.6927 23.9062 97.3594 23.9062C97.0208 23.9062 96.7266 23.9792 96.4766 24.125C96.2266 24.2708 96.0208 24.4714 95.8594 24.7266C95.7031 24.9818 95.5859 25.2786 95.5078 25.6172C95.4297 25.9557 95.3906 26.3177 95.3906 26.7031ZM108.914 22.5469V31H107.023V22.5469H108.914ZM106.898 20.3281C106.898 20.0417 106.992 19.8047 107.18 19.6172C107.372 19.4245 107.638 19.3281 107.977 19.3281C108.31 19.3281 108.573 19.4245 108.766 19.6172C108.958 19.8047 109.055 20.0417 109.055 20.3281C109.055 20.6094 108.958 20.8438 108.766 21.0312C108.573 21.2188 108.31 21.3125 107.977 21.3125C107.638 21.3125 107.372 21.2188 107.18 21.0312C106.992 20.8438 106.898 20.6094 106.898 20.3281ZM112.844 24.3516V31H110.961V22.5469H112.734L112.844 24.3516ZM112.508 26.4609L111.898 26.4531C111.904 25.8542 111.987 25.3047 112.148 24.8047C112.315 24.3047 112.544 23.875 112.836 23.5156C113.133 23.1562 113.487 22.8802 113.898 22.6875C114.31 22.4896 114.768 22.3906 115.273 22.3906C115.68 22.3906 116.047 22.4479 116.375 22.5625C116.708 22.6719 116.992 22.8516 117.227 23.1016C117.466 23.3516 117.648 23.6771 117.773 24.0781C117.898 24.474 117.961 24.9609 117.961 25.5391V31H116.07V25.5312C116.07 25.125 116.01 24.8047 115.891 24.5703C115.776 24.3307 115.607 24.1615 115.383 24.0625C115.164 23.9583 114.891 23.9062 114.562 23.9062C114.24 23.9062 113.951 23.974 113.695 24.1094C113.44 24.2448 113.224 24.4297 113.047 24.6641C112.875 24.8984 112.742 25.1693 112.648 25.4766C112.555 25.7839 112.508 26.112 112.508 26.4609ZM126.164 29.125L128.117 22.5469H129.32L128.992 24.5156L127.023 31H125.945L126.164 29.125ZM125.016 22.5469L126.539 29.1562L126.664 31H125.461L123.172 22.5469H125.016ZM131.148 29.0781L132.625 22.5469H134.461L132.18 31H130.977L131.148 29.0781ZM129.523 22.5469L131.453 29.0469L131.695 31H130.617L128.625 24.5078L128.297 22.5469H129.523ZM137.758 22.5469V31H135.867V22.5469H137.758ZM135.742 20.3281C135.742 20.0417 135.836 19.8047 136.023 19.6172C136.216 19.4245 136.482 19.3281 136.82 19.3281C137.154 19.3281 137.417 19.4245 137.609 19.6172C137.802 19.8047 137.898 20.0417 137.898 20.3281C137.898 20.6094 137.802 20.8438 137.609 21.0312C137.417 21.2188 137.154 21.3125 136.82 21.3125C136.482 21.3125 136.216 21.2188 136.023 21.0312C135.836 20.8438 135.742 20.6094 135.742 20.3281ZM143.695 22.5469V23.9219H138.93V22.5469H143.695ZM140.305 20.4766H142.188V28.6641C142.188 28.9245 142.224 29.125 142.297 29.2656C142.375 29.401 142.482 29.4922 142.617 29.5391C142.753 29.5859 142.911 29.6094 143.094 29.6094C143.224 29.6094 143.349 29.6016 143.469 29.5859C143.589 29.5703 143.685 29.5547 143.758 29.5391L143.766 30.9766C143.609 31.0234 143.427 31.0651 143.219 31.1016C143.016 31.138 142.781 31.1562 142.516 31.1562C142.083 31.1562 141.701 31.0807 141.367 30.9297C141.034 30.7734 140.773 30.5208 140.586 30.1719C140.398 29.8229 140.305 29.3594 140.305 28.7812V20.4766ZM147.008 19V31H145.133V19H147.008ZM146.68 26.4609L146.07 26.4531C146.076 25.8698 146.156 25.3307 146.312 24.8359C146.474 24.3411 146.698 23.9115 146.984 23.5469C147.276 23.1771 147.625 22.8932 148.031 22.6953C148.438 22.4922 148.888 22.3906 149.383 22.3906C149.799 22.3906 150.174 22.4479 150.508 22.5625C150.846 22.6771 151.138 22.862 151.383 23.1172C151.628 23.3672 151.812 23.6953 151.938 24.1016C152.068 24.5026 152.133 24.9922 152.133 25.5703V31H150.242V25.5547C150.242 25.1484 150.182 24.8255 150.062 24.5859C149.948 24.3464 149.779 24.1745 149.555 24.0703C149.331 23.9609 149.057 23.9062 148.734 23.9062C148.396 23.9062 148.096 23.974 147.836 24.1094C147.581 24.2448 147.367 24.4297 147.195 24.6641C147.023 24.8984 146.893 25.1693 146.805 25.4766C146.721 25.7839 146.68 26.112 146.68 26.4609ZM166.945 25.1875V29.5312C166.784 29.7448 166.531 29.9792 166.188 30.2344C165.849 30.4844 165.398 30.7005 164.836 30.8828C164.273 31.0651 163.573 31.1562 162.734 31.1562C162.021 31.1562 161.367 31.0365 160.773 30.7969C160.18 30.5521 159.667 30.1953 159.234 29.7266C158.807 29.2578 158.477 28.6875 158.242 28.0156C158.008 27.3385 157.891 26.5677 157.891 25.7031V24.9141C157.891 24.0547 157.997 23.2891 158.211 22.6172C158.43 21.9401 158.742 21.3672 159.148 20.8984C159.555 20.4297 160.044 20.0755 160.617 19.8359C161.195 19.5911 161.849 19.4688 162.578 19.4688C163.51 19.4688 164.281 19.625 164.891 19.9375C165.505 20.2448 165.979 20.6719 166.312 21.2188C166.646 21.7656 166.857 22.3906 166.945 23.0938H165.023C164.961 22.6979 164.839 22.3438 164.656 22.0312C164.479 21.7188 164.224 21.474 163.891 21.2969C163.562 21.1146 163.135 21.0234 162.609 21.0234C162.156 21.0234 161.758 21.1094 161.414 21.2812C161.07 21.4531 160.784 21.7057 160.555 22.0391C160.331 22.3724 160.161 22.7786 160.047 23.2578C159.932 23.737 159.875 24.2839 159.875 24.8984V25.7031C159.875 26.3281 159.94 26.8828 160.07 27.3672C160.206 27.8516 160.398 28.2604 160.648 28.5938C160.904 28.9271 161.214 29.1797 161.578 29.3516C161.943 29.5182 162.354 29.6016 162.812 29.6016C163.26 29.6016 163.628 29.5651 163.914 29.4922C164.201 29.4141 164.427 29.3229 164.594 29.2188C164.766 29.1094 164.898 29.0052 164.992 28.9062V26.6484H162.625V25.1875H166.945ZM168.57 26.8672V26.6875C168.57 26.0781 168.659 25.513 168.836 24.9922C169.013 24.4661 169.268 24.0104 169.602 23.625C169.94 23.2344 170.352 22.9323 170.836 22.7188C171.326 22.5 171.878 22.3906 172.492 22.3906C173.112 22.3906 173.664 22.5 174.148 22.7188C174.638 22.9323 175.052 23.2344 175.391 23.625C175.729 24.0104 175.987 24.4661 176.164 24.9922C176.341 25.513 176.43 26.0781 176.43 26.6875V26.8672C176.43 27.4766 176.341 28.0417 176.164 28.5625C175.987 29.0833 175.729 29.5391 175.391 29.9297C175.052 30.3151 174.641 30.6172 174.156 30.8359C173.672 31.0495 173.122 31.1562 172.508 31.1562C171.888 31.1562 171.333 31.0495 170.844 30.8359C170.359 30.6172 169.948 30.3151 169.609 29.9297C169.271 29.5391 169.013 29.0833 168.836 28.5625C168.659 28.0417 168.57 27.4766 168.57 26.8672ZM170.453 26.6875V26.8672C170.453 27.2474 170.492 27.6068 170.57 27.9453C170.648 28.2839 170.771 28.5807 170.938 28.8359C171.104 29.0911 171.318 29.2917 171.578 29.4375C171.839 29.5833 172.148 29.6562 172.508 29.6562C172.857 29.6562 173.159 29.5833 173.414 29.4375C173.674 29.2917 173.888 29.0911 174.055 28.8359C174.221 28.5807 174.344 28.2839 174.422 27.9453C174.505 27.6068 174.547 27.2474 174.547 26.8672V26.6875C174.547 26.3125 174.505 25.9583 174.422 25.625C174.344 25.2865 174.219 24.987 174.047 24.7266C173.88 24.4661 173.667 24.263 173.406 24.1172C173.151 23.9661 172.846 23.8906 172.492 23.8906C172.138 23.8906 171.831 23.9661 171.57 24.1172C171.315 24.263 171.104 24.4661 170.938 24.7266C170.771 24.987 170.648 25.2865 170.57 25.625C170.492 25.9583 170.453 26.3125 170.453 26.6875ZM177.648 26.8672V26.6875C177.648 26.0781 177.737 25.513 177.914 24.9922C178.091 24.4661 178.346 24.0104 178.68 23.625C179.018 23.2344 179.43 22.9323 179.914 22.7188C180.404 22.5 180.956 22.3906 181.57 22.3906C182.19 22.3906 182.742 22.5 183.227 22.7188C183.716 22.9323 184.13 23.2344 184.469 23.625C184.807 24.0104 185.065 24.4661 185.242 24.9922C185.419 25.513 185.508 26.0781 185.508 26.6875V26.8672C185.508 27.4766 185.419 28.0417 185.242 28.5625C185.065 29.0833 184.807 29.5391 184.469 29.9297C184.13 30.3151 183.719 30.6172 183.234 30.8359C182.75 31.0495 182.201 31.1562 181.586 31.1562C180.966 31.1562 180.411 31.0495 179.922 30.8359C179.438 30.6172 179.026 30.3151 178.688 29.9297C178.349 29.5391 178.091 29.0833 177.914 28.5625C177.737 28.0417 177.648 27.4766 177.648 26.8672ZM179.531 26.6875V26.8672C179.531 27.2474 179.57 27.6068 179.648 27.9453C179.727 28.2839 179.849 28.5807 180.016 28.8359C180.182 29.0911 180.396 29.2917 180.656 29.4375C180.917 29.5833 181.227 29.6562 181.586 29.6562C181.935 29.6562 182.237 29.5833 182.492 29.4375C182.753 29.2917 182.966 29.0911 183.133 28.8359C183.299 28.5807 183.422 28.2839 183.5 27.9453C183.583 27.6068 183.625 27.2474 183.625 26.8672V26.6875C183.625 26.3125 183.583 25.9583 183.5 25.625C183.422 25.2865 183.297 24.987 183.125 24.7266C182.958 24.4661 182.745 24.263 182.484 24.1172C182.229 23.9661 181.924 23.8906 181.57 23.8906C181.216 23.8906 180.909 23.9661 180.648 24.1172C180.393 24.263 180.182 24.4661 180.016 24.7266C179.849 24.987 179.727 25.2865 179.648 25.625C179.57 25.9583 179.531 26.3125 179.531 26.6875ZM192.5 22.5469H194.211V30.7656C194.211 31.526 194.049 32.1719 193.727 32.7031C193.404 33.2344 192.953 33.638 192.375 33.9141C191.797 34.1953 191.128 34.3359 190.367 34.3359C190.044 34.3359 189.685 34.2891 189.289 34.1953C188.898 34.1016 188.518 33.9505 188.148 33.7422C187.784 33.5391 187.479 33.2708 187.234 32.9375L188.117 31.8281C188.419 32.1875 188.753 32.4505 189.117 32.6172C189.482 32.7839 189.865 32.8672 190.266 32.8672C190.698 32.8672 191.065 32.7865 191.367 32.625C191.674 32.4688 191.911 32.237 192.078 31.9297C192.245 31.6224 192.328 31.2474 192.328 30.8047V24.4609L192.5 22.5469ZM186.758 26.8672V26.7031C186.758 26.0625 186.836 25.4792 186.992 24.9531C187.148 24.4219 187.372 23.9661 187.664 23.5859C187.956 23.2005 188.31 22.9062 188.727 22.7031C189.143 22.4948 189.615 22.3906 190.141 22.3906C190.688 22.3906 191.154 22.4896 191.539 22.6875C191.93 22.8854 192.255 23.1693 192.516 23.5391C192.776 23.9036 192.979 24.3411 193.125 24.8516C193.276 25.3568 193.388 25.9193 193.461 26.5391V27.0625C193.393 27.6667 193.279 28.2188 193.117 28.7188C192.956 29.2188 192.742 29.651 192.477 30.0156C192.211 30.3802 191.883 30.6615 191.492 30.8594C191.107 31.0573 190.651 31.1562 190.125 31.1562C189.609 31.1562 189.143 31.0495 188.727 30.8359C188.315 30.6224 187.961 30.3229 187.664 29.9375C187.372 29.5521 187.148 29.099 186.992 28.5781C186.836 28.0521 186.758 27.4818 186.758 26.8672ZM188.641 26.7031V26.8672C188.641 27.2526 188.677 27.612 188.75 27.9453C188.828 28.2786 188.945 28.5729 189.102 28.8281C189.263 29.0781 189.466 29.276 189.711 29.4219C189.961 29.5625 190.255 29.6328 190.594 29.6328C191.036 29.6328 191.398 29.5391 191.68 29.3516C191.966 29.1641 192.185 28.9115 192.336 28.5938C192.492 28.2708 192.602 27.9115 192.664 27.5156V26.1016C192.633 25.7943 192.568 25.5078 192.469 25.2422C192.375 24.9766 192.247 24.7448 192.086 24.5469C191.924 24.3438 191.721 24.1875 191.477 24.0781C191.232 23.9635 190.943 23.9062 190.609 23.9062C190.271 23.9062 189.977 23.9792 189.727 24.125C189.477 24.2708 189.271 24.4714 189.109 24.7266C188.953 24.9818 188.836 25.2786 188.758 25.6172C188.68 25.9557 188.641 26.3177 188.641 26.7031ZM198.18 19V31H196.289V19H198.18ZM203.969 31.1562C203.344 31.1562 202.779 31.0547 202.273 30.8516C201.773 30.6432 201.346 30.3542 200.992 29.9844C200.643 29.6146 200.375 29.1797 200.188 28.6797C200 28.1797 199.906 27.6406 199.906 27.0625V26.75C199.906 26.0885 200.003 25.4896 200.195 24.9531C200.388 24.4167 200.656 23.9583 201 23.5781C201.344 23.1927 201.75 22.8984 202.219 22.6953C202.688 22.4922 203.195 22.3906 203.742 22.3906C204.346 22.3906 204.875 22.4922 205.328 22.6953C205.781 22.8984 206.156 23.1849 206.453 23.5547C206.755 23.9193 206.979 24.3542 207.125 24.8594C207.276 25.3646 207.352 25.9219 207.352 26.5312V27.3359H200.82V25.9844H205.492V25.8359C205.482 25.4974 205.414 25.1797 205.289 24.8828C205.169 24.5859 204.984 24.3464 204.734 24.1641C204.484 23.9818 204.151 23.8906 203.734 23.8906C203.422 23.8906 203.143 23.9583 202.898 24.0938C202.659 24.224 202.458 24.4141 202.297 24.6641C202.135 24.9141 202.01 25.2161 201.922 25.5703C201.839 25.9193 201.797 26.3125 201.797 26.75V27.0625C201.797 27.4323 201.846 27.776 201.945 28.0938C202.049 28.4062 202.201 28.6797 202.398 28.9141C202.596 29.1484 202.836 29.3333 203.117 29.4688C203.398 29.599 203.719 29.6641 204.078 29.6641C204.531 29.6641 204.935 29.5729 205.289 29.3906C205.643 29.2083 205.951 28.9505 206.211 28.6172L207.203 29.5781C207.021 29.8438 206.784 30.099 206.492 30.3438C206.201 30.5833 205.844 30.7786 205.422 30.9297C205.005 31.0807 204.521 31.1562 203.969 31.1562Z" fill="#4E5D78"/>
</g>
<defs>
<filter id="filter0_d_201_51" x="0" y="0" width="248" height="60" filterUnits="userSpaceOnUse" color-interpolation-filters="sRGB">
<feFlood flood-opacity="0" result="BackgroundImageFix"/>
<feColorMatrix in="SourceAlpha" type="matrix" values="0 0 0 0 0 0 0 0 0 0 0 0 0 0 0 0 0 0 127 0" result="hardAlpha"/>
<feOffset dy="4"/>
<feGaussianBlur stdDeviation="2"/>
<feComposite in2="hardAlpha" operator="out"/>
<feColorMatrix type="matrix" values="0 0 0 0 0 0 0 0 0 0 0 0 0 0 0 0 0 0 0.25 0"/>
<feBlend mode="normal" in2="BackgroundImageFix" result="effect1_dropShadow_201_51"/>
<feBlend mode="normal" in="SourceGraphic" in2="effect1_dropShadow_201_51" result="shape"/>
</filter>
</defs>
</svg>
